<svg xmlns="http://www.w3.org/2000/svg" viewBox="0 0 1600 980" fill="none">
  <rect width="1600" height="980" rx="32" fill="#080808"/>
  <rect x="16" y="16" width="1568" height="948" rx="24" fill="#0d0d0d" stroke="#2a2a2a"/>

  <rect x="16" y="16" width="1568" height="44" rx="24" fill="#141414"/>
  <circle cx="56" cy="38" r="6" fill="#60A5FA"/>
  <text x="74" y="44" fill="#E8E8E8" font-family="Inter, sans-serif" font-size="18" font-weight="700">SiriusPad</text>
  <rect x="1060" y="26" width="210" height="24" rx="12" fill="#1a1a1a" stroke="#2a2a2a"/>
  <text x="1088" y="42" fill="#888888" font-family="Inter, sans-serif" font-size="12">Search notes</text>
  <rect x="1290" y="26" width="90" height="24" rx="12" fill="#1a1a1a" stroke="#2a2a2a"/>
  <text x="1312" y="42" fill="#888888" font-family="Inter, sans-serif" font-size="12">Settings</text>

  <rect x="16" y="60" width="300" height="880" fill="#141414"/>
  <line x1="316" y1="60" x2="316" y2="940" stroke="#2a2a2a"/>
  <text x="44" y="104" fill="#555555" font-family="Inter, sans-serif" font-size="11" letter-spacing="2">WORKSPACES</text>
  <rect x="36" y="120" width="260" height="42" rx="12" fill="#2a2a2a"/>
  <circle cx="60" cy="141" r="5" fill="#7C6AF7"/>
  <text x="78" y="147" fill="#E8E8E8" font-family="Inter, sans-serif" font-size="15">geral</text>
  <rect x="36" y="170" width="260" height="42" rx="12" fill="#141414" stroke="#2a2a2a"/>
  <circle cx="60" cy="191" r="5" fill="#60A5FA"/>
  <text x="78" y="197" fill="#888888" font-family="Inter, sans-serif" font-size="15">typhon</text>
  <rect x="36" y="220" width="260" height="42" rx="12" fill="#141414" stroke="#2a2a2a"/>
  <circle cx="60" cy="241" r="5" fill="#4ADE80"/>
  <text x="78" y="247" fill="#888888" font-family="Inter, sans-serif" font-size="15">snippets</text>

  <text x="44" y="314" fill="#555555" font-family="Inter, sans-serif" font-size="11" letter-spacing="2">NOTES</text>
  <rect x="36" y="332" width="260" height="116" rx="16" fill="#2a2a2a"/>
  <text x="56" y="366" fill="#E8E8E8" font-family="Inter, sans-serif" font-size="16" font-weight="600">Runner cheatsheet</text>
  <text x="56" y="392" fill="#888888" font-family="Inter, sans-serif" font-size="12">updated 2 minutes ago</text>
  <rect x="56" y="410" width="60" height="22" rx="11" fill="#1a1a1a" stroke="#2a2a2a"/>
  <text x="73" y="425" fill="#888888" font-family="Inter, sans-serif" font-size="11">bash</text>
  <rect x="124" y="410" width="68" height="22" rx="11" fill="#1a1a1a" stroke="#2a2a2a"/>
  <text x="146" y="425" fill="#888888" font-family="Inter, sans-serif" font-size="11">shell</text>

  <rect x="36" y="460" width="260" height="116" rx="16" fill="#141414" stroke="#2a2a2a"/>
  <text x="56" y="494" fill="#E8E8E8" font-family="Inter, sans-serif" font-size="16" font-weight="600">Bug: udp flood notes</text>
  <text x="56" y="520" fill="#888888" font-family="Inter, sans-serif" font-size="12">updated yesterday</text>
  <rect x="56" y="538" width="54" height="22" rx="11" fill="#1a1a1a" stroke="#2a2a2a"/>
  <text x="73" y="553" fill="#888888" font-family="Inter, sans-serif" font-size="11">bug</text>
  <rect x="118" y="538" width="54" height="22" rx="11" fill="#1a1a1a" stroke="#2a2a2a"/>
  <text x="133" y="553" fill="#888888" font-family="Inter, sans-serif" font-size="11">udp</text>

  <rect x="316" y="60" width="1268" height="48" fill="#141414"/>
  <text x="348" y="90" fill="#E8E8E8" font-family="Inter, sans-serif" font-size="16" font-weight="600">Runner cheatsheet</text>
  <rect x="658" y="74" width="84" height="22" rx="11" fill="#1a1a1a" stroke="#2a2a2a"/>
  <text x="685" y="89" fill="#888888" font-family="Inter, sans-serif" font-size="11">geral</text>
  <rect x="750" y="74" width="70" height="22" rx="11" fill="#1a1a1a" stroke="#2a2a2a"/>
  <text x="774" y="89" fill="#888888" font-family="Inter, sans-serif" font-size="11">bash</text>
  <rect x="830" y="74" width="68" height="22" rx="11" fill="#1a1a1a" stroke="#2a2a2a"/>
  <text x="852" y="89" fill="#888888" font-family="Inter, sans-serif" font-size="11">shell</text>

  <rect x="316" y="108" width="1268" height="666" fill="#0d0d0d"/>
  <text x="380" y="182" fill="#E8E8E8" font-family="JetBrains Mono, monospace" font-size="18"># Quick commands</text>
  <text x="380" y="226" fill="#888888" font-family="JetBrains Mono, monospace" font-size="16">echo "SiriusPad is ready"</text>
  <text x="380" y="270" fill="#C792EA" font-family="JetBrains Mono, monospace" font-size="16">curl</text>
  <text x="420" y="270" fill="#82AAFF" font-family="JetBrains Mono, monospace" font-size="16">-X</text>
  <text x="446" y="270" fill="#C3E88D" font-family="JetBrains Mono, monospace" font-size="16">POST</text>
  <text x="490" y="270" fill="#82AAFF" font-family="JetBrains Mono, monospace" font-size="16">$API_URL</text>
  <rect x="374" y="310" width="176" height="28" rx="8" fill="rgba(96,165,250,.14)"/>
  <text x="392" y="329" fill="#60A5FA" font-family="JetBrains Mono, monospace" font-size="16">{{API_URL}}</text>

  <rect x="348" y="792" width="1204" height="116" rx="18" fill="#141414" stroke="#2a2a2a"/>
  <text x="380" y="828" fill="#555555" font-family="Inter, sans-serif" font-size="11" letter-spacing="2">SNIPPET RUNNER</text>
  <rect x="1372" y="812" width="84" height="30" rx="10" fill="#1a1a1a" stroke="#2a2a2a"/>
  <text x="1400" y="831" fill="#E8E8E8" font-family="Inter, sans-serif" font-size="13">Run</text>
  <rect x="380" y="852" width="548" height="36" rx="12" fill="#0a0a0a"/>
  <text x="398" y="875" fill="#4ADE80" font-family="JetBrains Mono, monospace" font-size="14">SiriusPad is ready</text>
  <rect x="948" y="852" width="548" height="36" rx="12" fill="#0a0a0a"/>
  <text x="966" y="875" fill="#F87171" font-family="JetBrains Mono, monospace" font-size="14">No stderr</text>

  <rect x="16" y="940" width="1568" height="24" rx="0" fill="#141414"/>
  <text x="40" y="956" fill="#888888" font-family="Inter, sans-serif" font-size="11">workspace: geral</text>
  <text x="182" y="956" fill="#888888" font-family="Inter, sans-serif" font-size="11">bash</text>
  <text x="238" y="956" fill="#888888" font-family="Inter, sans-serif" font-size="11">saved</text>
  <text x="1534" y="956" text-anchor="end" fill="#888888" font-family="Inter, sans-serif" font-size="11">1.0.0</text>
</svg>
